<svg width="102" height="108" viewBox="0 0 102 108" fill="none" xmlns="http://www.w3.org/2000/svg">
<path d="M101.999 70.6321C101.999 75.6012 74.3908 106.563 51 107.327C27.6092 106.563 0 75.6012 0 70.6321L51 19.0295L101.999 70.6321Z" fill="url(#paint0_linear_2014_10486)"/>
<path d="M43.8391 93.2836H57.3997L55.6014 81.2397C57.9458 79.6435 59.4111 76.9656 59.4111 74.0634C59.4111 69.2617 55.4682 65.3569 50.6194 65.3569C45.7706 65.3569 41.8276 69.2617 41.8276 74.0634C41.8276 76.9656 43.2796 79.6435 45.6374 81.2529L43.8391 93.2836Z" fill="url(#paint1_linear_2014_10486)" stroke="#798EB9" stroke-width="1.1"/>
<path d="M67.8677 2.036L51 19.0297L101.986 70.7907C102.293 63.7232 97.2583 47.1043 94.7026 39.6782C89.4889 23.6995 80.0073 7.92561 75.9181 2.036C73.158 -1.6514 69.4011 0.499587 67.8677 2.036Z" fill="url(#paint2_linear_2014_10486)"/>
<path d="M34.1323 2.036L51 19.0297L0.0136719 70.7907C-0.293015 63.7232 4.74173 47.1043 7.29743 39.6782C12.5111 23.6995 21.9927 7.92561 26.0819 2.036C28.842 -1.6514 32.5989 0.499587 34.1323 2.036Z" fill="url(#paint3_linear_2014_10486)"/>
<path d="M101.999 70.6321C101.999 75.6012 74.3908 106.563 51 107.327C27.6092 106.563 0 75.6012 0 70.6321L51 19.0295L101.999 70.6321Z" fill="url(#paint4_linear_2014_10486)"/>
<path d="M43.8391 93.2836H57.3997L55.6014 81.2397C57.9458 79.6435 59.4111 76.9656 59.4111 74.0634C59.4111 69.2617 55.4682 65.3569 50.6194 65.3569C45.7706 65.3569 41.8276 69.2617 41.8276 74.0634C41.8276 76.9656 43.2796 79.6435 45.6374 81.2529L43.8391 93.2836Z" fill="url(#paint5_linear_2014_10486)" stroke="#798EB9" stroke-width="1.1"/>
<path d="M67.8677 2.036L51 19.0297L101.986 70.7907C102.293 63.7232 97.2583 47.1043 94.7026 39.6782C89.4889 23.6995 80.0073 7.92561 75.9181 2.036C73.158 -1.6514 69.4011 0.499587 67.8677 2.036Z" fill="url(#paint6_linear_2014_10486)"/>
<path d="M34.1323 2.036L51 19.0297L0.0136719 70.7907C-0.293015 63.7232 4.74173 47.1043 7.29743 39.6782C12.5111 23.6995 21.9927 7.92561 26.0819 2.036C28.842 -1.6514 32.5989 0.499587 34.1323 2.036Z" fill="url(#paint7_linear_2014_10486)"/>
<defs>
<linearGradient id="paint0_linear_2014_10486" x1="51.1951" y1="12.644" x2="59.2402" y2="207.26" gradientUnits="userSpaceOnUse">
<stop stop-color="#ABC5EA"/>
<stop offset="1" stop-color="#243165"/>
</linearGradient>
<linearGradient id="paint1_linear_2014_10486" x1="50.1023" y1="131.717" x2="50.9293" y2="63.9609" gradientUnits="userSpaceOnUse">
<stop stop-color="#ABC5EA"/>
<stop offset="0.735577" stop-color="#243165"/>
</linearGradient>
<linearGradient id="paint2_linear_2014_10486" x1="89.4401" y1="109.992" x2="74.0735" y2="-10.5244" gradientUnits="userSpaceOnUse">
<stop offset="0.181278" stop-color="#ABC5EA"/>
<stop offset="0.735577" stop-color="#243165"/>
</linearGradient>
<linearGradient id="paint3_linear_2014_10486" x1="12.5599" y1="109.992" x2="27.9265" y2="-10.5244" gradientUnits="userSpaceOnUse">
<stop offset="0.181278" stop-color="#ABC5EA"/>
<stop offset="0.735577" stop-color="#243165"/>
</linearGradient>
<linearGradient id="paint4_linear_2014_10486" x1="51.1951" y1="12.644" x2="59.2402" y2="207.26" gradientUnits="userSpaceOnUse">
<stop stop-color="#ABC5EA"/>
<stop offset="1" stop-color="#243165"/>
</linearGradient>
<linearGradient id="paint5_linear_2014_10486" x1="50.1023" y1="131.717" x2="50.9293" y2="63.9609" gradientUnits="userSpaceOnUse">
<stop stop-color="#ABC5EA"/>
<stop offset="0.735577" stop-color="#243165"/>
</linearGradient>
<linearGradient id="paint6_linear_2014_10486" x1="89.4401" y1="109.992" x2="74.0735" y2="-10.5244" gradientUnits="userSpaceOnUse">
<stop offset="0.181278" stop-color="#ABC5EA"/>
<stop offset="0.735577" stop-color="#243165"/>
</linearGradient>
<linearGradient id="paint7_linear_2014_10486" x1="12.5599" y1="109.992" x2="27.9265" y2="-10.5244" gradientUnits="userSpaceOnUse">
<stop offset="0.181278" stop-color="#ABC5EA"/>
<stop offset="0.735577" stop-color="#243165"/>
</linearGradient>
</defs>
</svg>
